<?xml version="1.0" encoding="UTF-8"?>
<svg xmlns="http://www.w3.org/2000/svg" version="1.1" viewBox="0 0 250 750">
  <defs>
    <style>
      .cls-1 {
        fill: #2c2c2c;
      }
    </style>
  </defs>
  <g>
    <path class="cls-1" d="M206.72,374.65c-13.13,2.4-26.26,4.84-39.41,7.17-12.32,2.19-12.09,2.03-7.28,13.14,1.7,3.92,7.32,8.55,3.48,12.02-3.19,2.88-7.39-2.82-10.63-5.18-6.12-4.46-8.47-3.81-9.68,4.06-3.18,20.74-6.98,41.39-10.66,62.06-.51,2.86.19,6.4-3.44,8.21-4.14-2.48-3.27-7.02-3.94-10.68-3.61-19.73-7.11-39.49-10.23-59.31-1.16-7.36-3.23-9.01-9.67-4.22-3.12,2.32-7.09,7.96-10.64,4.79-3.42-3.05,2.13-7.47,3.2-11.46.47-1.76,1.41-3.44,2.37-5.01,3.13-5.08,1.11-6.87-4.15-7.68-11.86-1.82-23.67-4-35.49-6.11-3.16-.57-6.54-.75-9.86-3.57,4.44-3.67,9.19-3.25,13.49-4.04,9.99-1.84,19.98-3.73,30.03-5.11,6.49-.89,9.67-2.25,5.48-9.58-2.61-4.55-8.45-11.35-4.92-14.56,4.28-3.89,8.79,4.2,13.65,6.16,1.36.55,2.67,1.2,4.92,2.22,3.97-22.85,7.67-45.02,11.81-67.1.71-3.82-.87-10.62,4.31-10.64,3.95-.02,2.93,6.72,3.61,10.43,3.7,20.03,7.14,40.12,10.34,60.24,1.04,6.53,2.9,7.88,8.53,3.65,3.49-2.62,8.21-8.51,11.43-5.6,3.87,3.5-1.89,8.6-3.7,12.82-4.46,10.38-4.67,10.23,6.47,12.16,13.52,2.35,27.02,4.8,40.53,7.2.02,1.18.04,2.36.06,3.55ZM191.23,373.96l.13-2.31c-10.21-1.77-20.43-3.46-30.62-5.32-10.2-1.86-10.17-2.01-5.84-11.82,1.24-2.8,3.73-5.39,2.63-9.53-1.61.92-2.68,1.46-3.68,2.11q-11.09,7.19-13.35-5.4c-3.48-19.66-6.91-39.33-10.51-59.78-3.22,3.37-2.93,6.62-3.46,9.59-2.91,16.42-5.68,32.86-8.68,49.26-2.37,12.96-2.49,12.93-14.17,5.87-.99-.6-1.9-1.6-4.04-.3,1.42,3.08,2.67,6.45,4.45,9.51,3.61,6.21,2.63,9.35-5.08,10.35-10.74,1.39-21.37,3.65-32.05,5.53,9.5,4,19.01,5.73,28.51,7.48,12.47,2.29,12.38,2.26,7.21,13.48-1.04,2.26-3.61,4.4-1.58,7.9,1.93-1.13,3.78-2.13,5.56-3.27q8.89-5.69,10.71,4.84c3.16,18.25,6.32,36.51,9.5,54.76.37,2.15.45,4.48,3.2,6.91,3.53-20.26,6.84-39.4,10.19-58.53q2.31-13.22,14.14-6.23c.88.52,1.95,1.69,3.23.21.45-3.26-1.53-5.87-2.99-8.42-4.12-7.18-2.41-10.29,5.91-11.32,10.3-1.27,20.46-3.66,30.68-5.56Z"/>
    <path class="cls-1" d="M129.65,233.82c-27.16.16-47.98-18.7-47.97-43.34,0-12.58,5.34-22.64,14.28-30.98,1.87-1.75,3.93-4.98,6.93-2.82,2.7,1.94,0,4.51-.7,6.66-6.36,19.47,4.11,38.01,22.94,40.48,22.09,2.9,37.88-16.84,31.43-39.07-.76-2.61-4.4-5.97-.6-8.14,3.14-1.79,5.42,2,7.54,4,12.33,11.6,16.25,29.33,10.14,45.09-6.56,16.91-23.91,28-44,28.12ZM97.2,163.49c-17.05,17.33-16,41.32,1.5,56.33,19.92,17.1,52.28,13.68,67.51-7.12,11.42-15.6,8.65-39.33-5.65-48.33,2.15,26.52-9.47,42.76-30.87,43.14-21.4.38-33.19-15.16-32.49-44.03Z"/>
    <path class="cls-1" d="M126.82,510.23c38.44.25,60.78,33.05,45.93,62.22-1.52,2.99-3.39,5.96-5.7,8.36-2.85,2.98-5.93,8.65-9.97,6.62-4.7-2.37.47-6.97,1.15-10.5,2.58-13.24-1.94-25.51-12.61-32.37-10.03-6.45-23.49-5.95-32.95,1.23-10.1,7.67-14.06,20.46-10.23,33.1.36,1.17.88,2.3,1.31,3.45.64,1.71,1.81,3.66.04,5.1-2.24,1.82-3.93-.28-5.6-1.5-15.73-11.45-20.52-35.24-10.24-52.46,9.56-16.01,24.37-22.79,38.84-23.25ZM161.86,580.25c12.32-10.76,15.59-27.11,9.11-41.88-7.29-16.62-26.06-26.47-46.66-24.49-18.52,1.78-34.45,15.52-37.97,32.76-2.63,12.87,2.67,27.38,11.93,32.67-1.69-25.69,9.9-41.72,30.75-42.51,21.37-.81,33.05,14.27,32.85,43.46Z"/>
    <path class="cls-1" d="M89.42,648.58c-.12-22.17,16.68-39.12,39.18-39.53,22.39-.41,40.55,17.23,40.47,39.34-.07,21.63-17.8,39.08-39.81,39.18-22.07.1-39.73-17.18-39.84-38.98ZM128.92,612.51c-20.96.1-36.41,15.52-36.23,36.16.18,20.33,16.3,35.72,37.12,35.44,20.08-.27,35.9-16.09,35.89-35.88-.01-20.39-15.9-35.83-36.78-35.73Z"/>
    <path class="cls-1" d="M129.46,59.21c22.41.15,39.63,17.13,39.6,39.06-.03,22.02-18.15,39.45-40.66,39.12-22.22-.33-39.21-17.64-38.99-39.71.23-22.14,17.38-38.62,40.04-38.47ZM129.55,133.91c20.66-.13,36.48-16.04,36.17-36.37-.31-20.26-16.3-35.2-37.44-34.99-20.41.2-35.61,15.5-35.57,35.82.04,20.42,15.85,35.68,36.84,35.55Z"/>
    <path class="cls-1" d="M170.8,693.26c-5.44-.98-5.8-9.9-13.61-5.2-6.98,4.2-9.77,7.91-6.34,15.76,1.71,3.91,3.68,8.2,2.34,14.17-3.89-5.29-4.17-10.66-6.07-15.35-1.25-3.09-.56-8.28-6.39-6.83-4.65,1.16-11.27.31-10.1,8.6.16,1.12-.44,2.35-.92,4.61-3.63-4.9-1.39-13.17-10.33-13.13-4.39.02-6.84.05-7.93,4.83-1.27,5.56-3.2,10.97-5.65,16.22-1.93-5.66.47-10.72,2.39-15.42,2.95-7.22-1.12-9.33-6.11-12.69-5.56-3.74-8.19-1.62-11.09,2.74-.59.88-1.77,1.37-3.2,2.42,3.88-12.58,6.15-13.49,16.44-7.38,16.59,9.84,33.23,9.83,49.79-.03,10.43-6.21,10.84-6.11,16.76,6.69Z"/>
    <path class="cls-1" d="M87.77,52.49c1.92-.82,2.71.72,3.58,1.85,2.46,3.2,4.49,6.93,9.43,3.01,4.23-3.36,11.27-4.28,7.55-12.86-2.07-4.78-4.21-10.06-3.32-16.93,4.28,5.04,4.14,10.55,6.01,15.24,1.23,3.08.52,8.4,6.38,6.76,4.23-1.18,10.7.06,9.93-7.84-.16-1.67-.42-3.83,2.53-4.76.89,5.76.58,11.98,9.31,12.58,4.99.35,6.35-1.02,7.68-5.11,1.73-5.32,1.87-11.37,6.79-16.76.52,6.9-1.53,12.26-3.66,17.06-3.6,8.08,2.79,8.99,6.86,12.29,5.13,4.16,7.5.93,10.24-2.69.67-.89,1.78-1.46,3.09-2.5-3.17,11.98-6.17,13.32-15.76,7.4-16.81-10.39-33.57-10.41-50.43-.09-9.74,5.96-11.41,5.2-16.21-6.66Z"/>
    <path class="cls-1" d="M102.71,602.2c10.65,2.1,10.79,1.95,11.34-12.01,2.47.34,2.43,2.52,2.72,4.14.65,3.57,1.11,6.72,6.18,5.79,4.89-.89,4.24-4.37,4.42-7.73.39-7.09-1.16-14.35.89-21.29.79.01,1.58.02,2.37.03,0,6.55-.15,13.1.06,19.65.12,3.64-1.76,8.36,4.54,9.3,6.62.99,5.45-4.22,6.56-7.69.39-1.22.95-2.23,2.39-2.36.42,13.79.71,14.14,10.75,12.58-.21,4.68-2.31,5.89-6.63,4.16-12.89-5.15-25.85-5.11-38.68.14-4.96,2.03-5.72-1.12-6.91-4.72Z"/>
    <path class="cls-1" d="M128.11,174.43c-1.72-6.21-.27-12.65-.82-18.94-.34-3.87,2.13-9.17-4.57-10.31-6.75-1.15-4.82,4.8-6.48,7.83-.42.77-1.06,1.43-1.63,2.17-3.77-3.59,3-9.32-2.71-12.26-2.95-1.52-5.87-1.68-9.07,3.88.54-8,2.43-9.9,7.72-7.89,12.29,4.65,24.72,4.59,37.03.04,4.27-1.58,7.07-1.32,7.47,4.13-9.99-2.44-10.77-1.57-10.89,11.97-3.33-.73-2.61-3.71-3.08-5.82-.75-3.38-2.49-4.63-5.9-4.08-3.35.54-4.66,2.33-4.62,5.67.11,7.9.03,15.81.03,23.71-.83-.04-1.67-.08-2.5-.12Z"/>
    <path class="cls-1" d="M220.45,426.6c-15.99-10.22-31.99-20.44-47.98-30.65.59-.95,1.18-1.9,1.77-2.86,16.04,10.15,32.08,20.3,48.11,30.45-.64,1.02-1.27,2.04-1.91,3.06Z"/>
    <path class="cls-1" d="M37.96,319.05c15.97,10.18,31.94,20.35,47.92,30.53-.62,1.02-1.25,2.04-1.87,3.06-15.93-10.17-31.86-20.34-47.79-30.52.58-1.02,1.16-2.05,1.74-3.07Z"/>
    <path class="cls-1" d="M222.11,321.95c-15.9,10.21-31.81,20.41-47.71,30.62-.64-.99-1.29-1.98-1.93-2.97,15.91-10.19,31.82-20.39,47.74-30.58.64.98,1.27,1.96,1.91,2.94Z"/>
    <path class="cls-1" d="M86.16,395.73c-16.15,10.3-32.31,20.6-48.46,30.89-.57-.91-1.14-1.82-1.71-2.73,15.9-10.7,31.8-21.41,48.59-30.69.53.84,1.05,1.69,1.58,2.53Z"/>
    <path class="cls-1" d="M152.84,322.68c4.06-10.28,9.81-19.54,16.16-28.68,1.48.89-.34-.25,1.14.63-4.94,9.72-9.88,19.44-14.82,29.16l-2.48-1.12Z"/>
    <path class="cls-1" d="M82.24,527.49c-5.57,11.07-7.61,22.85-6.51,35.24-4.75-12.96.65-24.14,6.51-35.24Z"/>
    <path class="cls-1" d="M90.59,450.06c2.59-9.47,6.46-18.29,12.95-25.8-2.52,9.5-6.75,18.15-12.95,25.8Z"/>
    <path class="cls-1" d="M90.65,295.52c6.18,7.57,10.38,16.13,12.77,25.59-6.3-7.51-10.37-16.13-12.77-25.59Z"/>
    <path class="cls-1" d="M166.57,450.36c-5.33-7.7-8.95-16.28-12.87-24.7.94-.5,1.89-1,2.83-1.51l12.71,24.98c-.89.41-1.78.82-2.68,1.22Z"/>
    <path class="cls-1" d="M129.95,358.96c-.82,5.66.32,8.95,3.52,10.82,5.48,3.2-2.26,5.53-.36,8.39-3.69-1.59-3.1,1.25-3.35,3.25-.15,1.19-.37,2.38-.56,3.56-.21-1.15-.35-2.33-.64-3.46-.3-1.15-.42-2.84-1.19-3.28-5.79-3.28-5.55-6.77-.6-10.48,2.42-1.81,1.24-4.62,3.17-8.79Z"/>
  </g>
</svg>